<svg width="45" height="44" viewBox="0 0 45 44" fill="none" xmlns="http://www.w3.org/2000/svg">
<g clip-path="url(#clip0_4983_4354)">
<path d="M22.5 0C10.3509 0 0.5 9.85089 0.5 22C0.5 34.1491 10.3509 44 22.5 44C34.6491 44 44.5 34.1491 44.5 22C44.5 9.85089 34.6491 0 22.5 0ZM19.3768 32.2143C14.3187 32.2143 11.4018 28.8455 11.4018 23.2473V20.8411C11.4018 15.1987 14.3187 11.7857 19.3719 11.7857C23.708 11.7857 26.8509 14.5799 26.8509 18.5674C26.8509 18.6853 26.7527 18.7835 26.6348 18.7835H24.0518C23.8455 18.7835 23.6786 18.6263 23.6589 18.4201C23.4625 16.1562 21.8125 14.6094 19.3866 14.6094C16.3862 14.6094 14.692 16.8388 14.692 20.8411V23.2621C14.692 27.2054 16.3862 29.4054 19.3866 29.4054C21.8076 29.4054 23.4527 27.9567 23.6589 25.85C23.6786 25.6487 23.8455 25.4915 24.0518 25.4915H26.6397C26.7576 25.4915 26.8558 25.5897 26.8558 25.7076C26.8558 29.5085 23.6982 32.2143 19.3768 32.2143ZM33.5982 31.4335C33.5982 31.6496 33.4214 31.8263 33.2054 31.8263H30.7304C30.5143 31.8263 30.3375 31.6496 30.3375 31.4335V12.5665C30.3375 12.3504 30.5143 12.1737 30.7304 12.1737H33.2054C33.4214 12.1737 33.5982 12.3504 33.5982 12.5665V31.4335Z" fill="black"/>
</g>
<defs>
<clipPath id="clip0_4983_4354">
<rect width="44" height="44" fill="white" transform="translate(0.5)"/>
</clipPath>
</defs>
</svg>
