<svg width="45" height="44" viewBox="0 0 45 44" fill="none" xmlns="http://www.w3.org/2000/svg">
<path d="M8.6155 37.4014L5.52588 2.75H39.4746L36.3809 37.3959L22.4796 41.25L8.6155 37.4014Z" fill="#E44F26"/>
<path d="M22.5 38.3068L33.7338 35.1924L36.3765 5.58594H22.5V38.3068Z" fill="#F1662A"/>
<path d="M22.5 18.436H16.8762L16.4885 14.0841H22.5V9.83398H11.8438L11.9455 10.9752L12.9891 22.6861H22.5V18.436ZM22.5 29.4731L22.4808 29.4786L17.748 28.2012L17.4455 24.8119H13.1789L13.7743 31.4834L22.4808 33.9006L22.5 33.8951V29.4731Z" fill="#EBEBEB"/>
<path d="M22.4854 18.436V22.6861H27.7186L27.2264 28.1985L22.4854 29.4772V33.8992L31.1987 31.4834L31.262 30.7656L32.2602 19.5772L32.3647 18.436H22.4854ZM22.4854 9.83398V14.0841H32.7511L32.8364 13.1299L33.0302 10.9752L33.132 9.83398H22.4854Z" fill="white"/>
</svg>
