<svg width="45" height="44" viewBox="0 0 45 44" fill="none" xmlns="http://www.w3.org/2000/svg">
<path d="M22.5 2C11.4717 2 2.5 10.9717 2.5 22C2.5 33.0283 11.4717 42 22.5 42C33.5283 42 42.5 33.0283 42.5 22C42.5 10.9717 33.5283 2 22.5 2ZM22.5 5.33333C31.725 5.33333 39.1667 12.775 39.1667 22C39.1667 31.225 31.725 38.6667 22.5 38.6667C13.275 38.6667 5.83333 31.225 5.83333 22C5.83333 12.775 13.275 5.33333 22.5 5.33333ZM22.5517 8.40667C20.5905 8.44977 18.7241 9.25868 17.3517 10.6603C15.9794 12.062 15.21 13.945 15.2083 15.9067V17.9383C15.2083 18.2883 15.4817 18.5617 15.8333 18.5617H17.3967C17.4788 18.5626 17.5602 18.547 17.6363 18.516C17.7123 18.485 17.7814 18.4391 17.8394 18.3811C17.8975 18.323 17.9434 18.254 17.9744 18.1779C18.0054 18.1019 18.0209 18.0204 18.02 17.9383V15.905C18.02 13.3667 19.9667 11.205 22.5 11.115C25.1633 11.0167 27.3967 13.1583 27.3967 15.8017V17.9367C27.3967 18.2883 27.67 18.5633 28.0217 18.5633H29.5317C29.6142 18.5645 29.6961 18.549 29.7726 18.5179C29.849 18.4868 29.9184 18.4406 29.9767 18.3822C30.035 18.3238 30.081 18.2542 30.1119 18.1777C30.1428 18.1011 30.158 18.0192 30.1567 17.9367V16.01C30.1567 11.8183 26.745 8.32667 22.5517 8.40667ZM13.23 19.24C12.4617 19.24 11.8233 19.825 11.8233 20.5933V31.375C11.8233 32.1417 12.4617 32.73 13.23 32.73H32.0833C32.85 32.73 33.49 32.1433 33.49 31.375V20.5933C33.49 19.8267 32.8517 19.24 32.0833 19.24H13.23ZM13.49 20.5933H14.115C14.1975 20.5946 14.2763 20.6281 14.3345 20.6866C14.3927 20.7452 14.4258 20.8241 14.4267 20.9067V31.115C14.4254 31.1973 14.3921 31.2758 14.334 31.334C14.2758 31.3921 14.1973 31.4254 14.115 31.4267H13.49C13.4075 31.4258 13.3285 31.3927 13.27 31.3345C13.2114 31.2763 13.178 31.1975 13.1767 31.115V20.9067C13.1775 20.8238 13.2108 20.7446 13.2694 20.6861C13.328 20.6275 13.4072 20.5942 13.49 20.5933ZM22.605 21.9483C24.0683 21.9483 25.26 23.14 25.26 24.605C25.2635 25.0677 25.145 25.5231 24.9165 25.9254C24.688 26.3277 24.3575 26.6627 23.9583 26.8967V29.3967C23.9583 29.76 23.645 30.0217 23.2817 30.0217H21.9267C21.5617 30.0217 21.25 29.76 21.25 29.3967V26.8967C20.8508 26.6627 20.5204 26.3277 20.2918 25.9254C20.0633 25.5231 19.9449 25.0677 19.9483 24.605C19.9483 23.1383 21.14 21.9483 22.605 21.9483Z" fill="black"/>
</svg>
