<svg width="45" height="44" viewBox="0 0 45 44" fill="none" xmlns="http://www.w3.org/2000/svg">
<g clip-path="url(#clip0_4983_4359)">
<mask id="mask0_4983_4359" style="mask-type:luminance" maskUnits="userSpaceOnUse" x="0" y="0" width="45" height="44">
<path d="M0.5 0H44.5V44H0.5V0Z" fill="white"/>
</mask>
<g mask="url(#mask0_4983_4359)">
<path d="M21.059 0.0112292C20.9637 0.0203958 20.663 0.0515625 20.3917 0.0717292C14.1437 0.636396 8.29167 4.0079 4.581 9.19073C2.53316 12.0363 1.20122 15.3334 0.698 18.8029C0.522 20.0129 0.5 20.3686 0.5 22.0076C0.5 23.6466 0.522 24.0041 0.698 25.2122C1.89333 33.4751 7.77467 40.4161 15.7478 42.9882C17.176 43.4484 18.6812 43.7619 20.3917 43.9526C21.059 44.0259 23.941 44.0259 24.6083 43.9526C27.5618 43.6244 30.0662 42.8929 32.5338 41.6334C32.9133 41.4409 32.9867 41.3877 32.9353 41.3456C31.7283 39.7537 30.5335 38.1525 29.3512 36.5422L25.833 31.7884L21.4257 25.2636C19.9592 23.0812 18.4791 20.908 16.9853 18.7442C16.9688 18.7387 16.9523 21.6372 16.9432 25.1792C16.9303 31.3759 16.9248 31.6252 16.8478 31.7719C16.7722 31.9427 16.6383 32.0811 16.4702 32.1624C16.3327 32.2321 16.2135 32.2449 15.5627 32.2449H14.8183L14.6203 32.1202C14.4978 32.0429 14.3984 31.934 14.3325 31.8049L14.2408 31.6124L14.25 22.9884L14.2628 14.3607L14.3967 14.1921C14.4855 14.0853 14.5937 13.9964 14.7157 13.9299C14.8917 13.8437 14.9595 13.8364 15.7057 13.8364C16.582 13.8364 16.7287 13.8694 16.956 14.1187C17.0202 14.1884 19.4072 17.7854 22.2635 22.1157L30.9425 35.2644L34.4258 40.5407L34.6037 40.4252C36.2803 39.311 37.8002 37.9774 39.1228 36.4597C41.8949 33.2866 43.6931 29.3814 44.302 25.2122C44.478 24.0022 44.5 23.6466 44.5 22.0076C44.5 20.3686 44.478 20.0129 44.302 18.8029C43.1067 10.5419 37.2253 3.59906 29.2522 1.0269C27.762 0.553106 26.2276 0.231847 24.6725 0.0680625C24.2582 0.0240625 21.4165 -0.0236042 21.0608 0.0130625M30.068 13.3231C30.1704 13.3743 30.2616 13.4454 30.3362 13.5323C30.4108 13.6192 30.4673 13.7201 30.5025 13.8291C30.5355 13.9391 30.5447 16.3316 30.5355 21.7216L30.5227 29.4546L29.1605 27.3646L27.7928 25.2746V19.6536C27.7928 16.0181 27.8093 13.9757 27.835 13.8767C27.8657 13.7623 27.9192 13.6553 27.9923 13.562C28.0654 13.4688 28.1566 13.3912 28.2603 13.3341C28.4382 13.2424 28.5023 13.2351 29.177 13.2351C29.8132 13.2351 29.925 13.2442 30.068 13.3212" fill="black"/>
</g>
</g>
<defs>
<clipPath id="clip0_4983_4359">
<rect width="44" height="44" fill="white" transform="translate(0.5)"/>
</clipPath>
</defs>
</svg>
