<svg width="113" height="112" viewBox="0 0 113 112" fill="none" xmlns="http://www.w3.org/2000/svg">
<rect x="0.5" width="112" height="112" rx="20" fill="white"/>
<path d="M56.5 22C45.4717 22 36.5 30.9717 36.5 42C36.5 53.0283 45.4717 62 56.5 62C67.5283 62 76.5 53.0283 76.5 42C76.5 30.9717 67.5283 22 56.5 22ZM56.5 25.3333C65.725 25.3333 73.1667 32.775 73.1667 42C73.1667 51.225 65.725 58.6667 56.5 58.6667C47.275 58.6667 39.8333 51.225 39.8333 42C39.8333 32.775 47.275 25.3333 56.5 25.3333ZM56.5517 28.4067C54.5905 28.4498 52.7241 29.2587 51.3517 30.6603C49.9794 32.062 49.21 33.945 49.2083 35.9067V37.9383C49.2083 38.2883 49.4817 38.5617 49.8333 38.5617H51.3967C51.4788 38.5626 51.5602 38.547 51.6363 38.516C51.7123 38.485 51.7814 38.4391 51.8394 38.3811C51.8975 38.323 51.9434 38.254 51.9744 38.1779C52.0054 38.1019 52.0209 38.0204 52.02 37.9383V35.905C52.02 33.3667 53.9667 31.205 56.5 31.115C59.1633 31.0167 61.3967 33.1583 61.3967 35.8017V37.9367C61.3967 38.2883 61.67 38.5633 62.0217 38.5633H63.5317C63.6142 38.5645 63.6961 38.549 63.7726 38.5179C63.849 38.4868 63.9184 38.4406 63.9767 38.3822C64.035 38.3238 64.081 38.2542 64.1119 38.1777C64.1428 38.1011 64.158 38.0192 64.1567 37.9367V36.01C64.1567 31.8183 60.745 28.3267 56.5517 28.4067ZM47.23 39.24C46.4617 39.24 45.8233 39.825 45.8233 40.5933V51.375C45.8233 52.1417 46.4617 52.73 47.23 52.73H66.0833C66.85 52.73 67.49 52.1433 67.49 51.375V40.5933C67.49 39.8267 66.8517 39.24 66.0833 39.24H47.23ZM47.49 40.5933H48.115C48.1975 40.5946 48.2763 40.6281 48.3345 40.6866C48.3927 40.7452 48.4258 40.8241 48.4267 40.9067V51.115C48.4254 51.1973 48.3921 51.2758 48.334 51.334C48.2758 51.3921 48.1973 51.4254 48.115 51.4267H47.49C47.4075 51.4258 47.3285 51.3927 47.27 51.3345C47.2114 51.2763 47.178 51.1975 47.1767 51.115V40.9067C47.1775 40.8238 47.2108 40.7446 47.2694 40.6861C47.328 40.6275 47.4072 40.5942 47.49 40.5933ZM56.605 41.9483C58.0683 41.9483 59.26 43.14 59.26 44.605C59.2635 45.0677 59.145 45.5231 58.9165 45.9254C58.688 46.3277 58.3575 46.6627 57.9583 46.8967V49.3967C57.9583 49.76 57.645 50.0217 57.2817 50.0217H55.9267C55.5617 50.0217 55.25 49.76 55.25 49.3967V46.8967C54.8508 46.6627 54.5204 46.3277 54.2918 45.9254C54.0633 45.5231 53.9449 45.0677 53.9483 44.605C53.9483 43.1383 55.14 41.9483 56.605 41.9483Z" fill="black"/>
<path d="M14.34 87.18C13.736 87.18 13.192 87.08 12.708 86.88C12.228 86.676 11.83 86.388 11.514 86.016C11.202 85.644 10.998 85.202 10.902 84.69L11.802 84.54C11.946 85.1 12.25 85.54 12.714 85.86C13.178 86.176 13.732 86.334 14.376 86.334C14.8 86.334 15.18 86.268 15.516 86.136C15.852 86 16.116 85.808 16.308 85.56C16.5 85.312 16.596 85.018 16.596 84.678C16.596 84.454 16.556 84.264 16.476 84.108C16.396 83.948 16.29 83.816 16.158 83.712C16.026 83.608 15.882 83.522 15.726 83.454C15.57 83.382 15.418 83.324 15.27 83.28L13.08 82.626C12.816 82.55 12.572 82.454 12.348 82.338C12.124 82.218 11.928 82.076 11.76 81.912C11.596 81.744 11.468 81.548 11.376 81.324C11.284 81.1 11.238 80.844 11.238 80.556C11.238 80.068 11.366 79.646 11.622 79.29C11.878 78.934 12.228 78.66 12.672 78.468C13.116 78.276 13.622 78.182 14.19 78.186C14.766 78.186 15.28 78.288 15.732 78.492C16.188 78.696 16.564 78.988 16.86 79.368C17.156 79.744 17.352 80.19 17.448 80.706L16.524 80.874C16.464 80.498 16.326 80.172 16.11 79.896C15.894 79.62 15.618 79.408 15.282 79.26C14.95 79.108 14.584 79.03 14.184 79.026C13.796 79.026 13.45 79.092 13.146 79.224C12.846 79.352 12.608 79.528 12.432 79.752C12.256 79.976 12.168 80.232 12.168 80.52C12.168 80.812 12.248 81.046 12.408 81.222C12.572 81.398 12.772 81.536 13.008 81.636C13.248 81.736 13.48 81.818 13.704 81.882L15.396 82.38C15.572 82.428 15.778 82.498 16.014 82.59C16.254 82.678 16.486 82.806 16.71 82.974C16.938 83.138 17.126 83.354 17.274 83.622C17.422 83.89 17.496 84.23 17.496 84.642C17.496 85.042 17.416 85.4 17.256 85.716C17.1 86.032 16.878 86.298 16.59 86.514C16.306 86.73 15.972 86.894 15.588 87.006C15.208 87.122 14.792 87.18 14.34 87.18ZM21.9103 87.18C21.3063 87.18 20.7623 87.08 20.2783 86.88C19.7983 86.676 19.4003 86.388 19.0843 86.016C18.7723 85.644 18.5683 85.202 18.4723 84.69L19.3723 84.54C19.5163 85.1 19.8203 85.54 20.2843 85.86C20.7483 86.176 21.3023 86.334 21.9463 86.334C22.3703 86.334 22.7503 86.268 23.0863 86.136C23.4223 86 23.6863 85.808 23.8783 85.56C24.0703 85.312 24.1663 85.018 24.1663 84.678C24.1663 84.454 24.1263 84.264 24.0463 84.108C23.9663 83.948 23.8603 83.816 23.7283 83.712C23.5963 83.608 23.4523 83.522 23.2963 83.454C23.1403 83.382 22.9883 83.324 22.8403 83.28L20.6503 82.626C20.3863 82.55 20.1423 82.454 19.9183 82.338C19.6943 82.218 19.4983 82.076 19.3303 81.912C19.1663 81.744 19.0383 81.548 18.9463 81.324C18.8543 81.1 18.8083 80.844 18.8083 80.556C18.8083 80.068 18.9363 79.646 19.1923 79.29C19.4483 78.934 19.7983 78.66 20.2423 78.468C20.6863 78.276 21.1923 78.182 21.7603 78.186C22.3363 78.186 22.8503 78.288 23.3023 78.492C23.7583 78.696 24.1343 78.988 24.4303 79.368C24.7263 79.744 24.9223 80.19 25.0183 80.706L24.0943 80.874C24.0343 80.498 23.8963 80.172 23.6803 79.896C23.4643 79.62 23.1883 79.408 22.8523 79.26C22.5203 79.108 22.1543 79.03 21.7543 79.026C21.3663 79.026 21.0203 79.092 20.7163 79.224C20.4163 79.352 20.1783 79.528 20.0023 79.752C19.8263 79.976 19.7383 80.232 19.7383 80.52C19.7383 80.812 19.8183 81.046 19.9783 81.222C20.1423 81.398 20.3423 81.536 20.5783 81.636C20.8183 81.736 21.0503 81.818 21.2743 81.882L22.9663 82.38C23.1423 82.428 23.3483 82.498 23.5843 82.59C23.8243 82.678 24.0563 82.806 24.2803 82.974C24.5083 83.138 24.6963 83.354 24.8443 83.622C24.9923 83.89 25.0663 84.23 25.0663 84.642C25.0663 85.042 24.9863 85.4 24.8263 85.716C24.6703 86.032 24.4483 86.298 24.1603 86.514C23.8763 86.73 23.5423 86.894 23.1583 87.006C22.7783 87.122 22.3623 87.18 21.9103 87.18ZM26.4248 87V78.36H27.3068V86.154H31.4108V87H26.4248ZM34.6178 78.36H35.5238L33.2198 87H32.3138L34.6178 78.36ZM39.3841 87V79.206H36.3661V78.36H43.2841V79.206H40.2661V87H39.3841ZM44.3663 87V78.36H45.2483V86.154H49.3523V87H44.3663ZM53.3752 87.18C52.7712 87.18 52.2272 87.08 51.7432 86.88C51.2632 86.676 50.8652 86.388 50.5492 86.016C50.2372 85.644 50.0332 85.202 49.9372 84.69L50.8372 84.54C50.9812 85.1 51.2852 85.54 51.7492 85.86C52.2132 86.176 52.7672 86.334 53.4112 86.334C53.8352 86.334 54.2152 86.268 54.5512 86.136C54.8872 86 55.1512 85.808 55.3432 85.56C55.5352 85.312 55.6312 85.018 55.6312 84.678C55.6312 84.454 55.5912 84.264 55.5112 84.108C55.4312 83.948 55.3252 83.816 55.1932 83.712C55.0612 83.608 54.9172 83.522 54.7612 83.454C54.6052 83.382 54.4532 83.324 54.3052 83.28L52.1152 82.626C51.8512 82.55 51.6072 82.454 51.3832 82.338C51.1592 82.218 50.9632 82.076 50.7952 81.912C50.6312 81.744 50.5032 81.548 50.4112 81.324C50.3192 81.1 50.2732 80.844 50.2732 80.556C50.2732 80.068 50.4012 79.646 50.6572 79.29C50.9132 78.934 51.2632 78.66 51.7072 78.468C52.1512 78.276 52.6572 78.182 53.2252 78.186C53.8012 78.186 54.3152 78.288 54.7672 78.492C55.2232 78.696 55.5992 78.988 55.8952 79.368C56.1912 79.744 56.3872 80.19 56.4832 80.706L55.5592 80.874C55.4992 80.498 55.3612 80.172 55.1452 79.896C54.9292 79.62 54.6532 79.408 54.3172 79.26C53.9852 79.108 53.6192 79.03 53.2192 79.026C52.8312 79.026 52.4852 79.092 52.1812 79.224C51.8812 79.352 51.6432 79.528 51.4672 79.752C51.2912 79.976 51.2032 80.232 51.2032 80.52C51.2032 80.812 51.2832 81.046 51.4432 81.222C51.6072 81.398 51.8072 81.536 52.0432 81.636C52.2832 81.736 52.5152 81.818 52.7392 81.882L54.4312 82.38C54.6072 82.428 54.8132 82.498 55.0492 82.59C55.2892 82.678 55.5212 82.806 55.7452 82.974C55.9732 83.138 56.1612 83.354 56.3092 83.622C56.4572 83.89 56.5312 84.23 56.5312 84.642C56.5312 85.042 56.4512 85.4 56.2912 85.716C56.1352 86.032 55.9132 86.298 55.6252 86.514C55.3412 86.73 55.0072 86.894 54.6232 87.006C54.2432 87.122 53.8272 87.18 53.3752 87.18ZM60.172 87V78.36H65.572V79.206H61.054V82.194H64.852V83.04H61.054V86.154H65.572V87H60.172ZM71.6958 87V83.694C71.6958 83.334 71.6618 83.004 71.5938 82.704C71.5258 82.4 71.4158 82.136 71.2638 81.912C71.1158 81.684 70.9218 81.508 70.6818 81.384C70.4458 81.26 70.1578 81.198 69.8178 81.198C69.5058 81.198 69.2298 81.252 68.9898 81.36C68.7538 81.468 68.5538 81.624 68.3898 81.828C68.2298 82.028 68.1078 82.272 68.0238 82.56C67.9398 82.848 67.8978 83.176 67.8978 83.544L67.2738 83.406C67.2738 82.742 67.3898 82.184 67.6218 81.732C67.8538 81.28 68.1738 80.938 68.5818 80.706C68.9898 80.474 69.4578 80.358 69.9858 80.358C70.3738 80.358 70.7118 80.418 70.9998 80.538C71.2918 80.658 71.5378 80.82 71.7378 81.024C71.9418 81.228 72.1058 81.462 72.2298 81.726C72.3538 81.986 72.4438 82.264 72.4998 82.56C72.5558 82.852 72.5838 83.144 72.5838 83.436V87H71.6958ZM67.0098 87V80.52H67.8078V82.116H67.8978V87H67.0098ZM76.7936 87.18C76.1416 87.18 75.5896 87.034 75.1376 86.742C74.6856 86.45 74.3416 86.048 74.1056 85.536C73.8736 85.02 73.7536 84.428 73.7456 83.76C73.7536 83.08 73.8776 82.484 74.1176 81.972C74.3576 81.456 74.7036 81.056 75.1556 80.772C75.6076 80.484 76.1556 80.34 76.7996 80.34C77.4556 80.34 78.0256 80.5 78.5096 80.82C78.9976 81.14 79.3316 81.578 79.5116 82.134L78.6476 82.41C78.4956 82.022 78.2536 81.722 77.9216 81.51C77.5936 81.294 77.2176 81.186 76.7936 81.186C76.3176 81.186 75.9236 81.296 75.6116 81.516C75.2996 81.732 75.0676 82.034 74.9156 82.422C74.7636 82.81 74.6856 83.256 74.6816 83.76C74.6896 84.536 74.8696 85.16 75.2216 85.632C75.5736 86.1 76.0976 86.334 76.7936 86.334C77.2336 86.334 77.6076 86.234 77.9156 86.034C78.2276 85.83 78.4636 85.534 78.6236 85.146L79.5116 85.41C79.2716 85.986 78.9196 86.426 78.4556 86.73C77.9916 87.03 77.4376 87.18 76.7936 87.18ZM80.7502 87V80.52H81.5422V82.08L81.3862 81.876C81.4582 81.684 81.5522 81.508 81.6682 81.348C81.7842 81.184 81.9102 81.05 82.0462 80.946C82.2142 80.798 82.4102 80.686 82.6342 80.61C82.8582 80.53 83.0842 80.484 83.3122 80.472C83.5402 80.456 83.7482 80.472 83.9362 80.52V81.348C83.7002 81.288 83.4422 81.274 83.1622 81.306C82.8822 81.338 82.6242 81.45 82.3882 81.642C82.1722 81.81 82.0102 82.012 81.9022 82.248C81.7942 82.48 81.7222 82.728 81.6862 82.992C81.6502 83.252 81.6322 83.51 81.6322 83.766V87H80.7502ZM85.9163 89.88L87.1703 86.478L87.1883 87.486L84.3503 80.52H85.2863L87.6143 86.346H87.2303L89.3783 80.52H90.2783L86.7983 89.88H85.9163ZM94.2305 87.18C93.6345 87.18 93.1305 87.03 92.7185 86.73C92.3065 86.426 91.9945 86.016 91.7825 85.5C91.5705 84.98 91.4645 84.398 91.4645 83.754C91.4645 83.098 91.5705 82.514 91.7825 82.002C91.9985 81.486 92.3145 81.08 92.7305 80.784C93.1465 80.488 93.6585 80.34 94.2665 80.34C94.8585 80.34 95.3665 80.49 95.7905 80.79C96.2145 81.09 96.5385 81.498 96.7625 82.014C96.9905 82.53 97.1045 83.11 97.1045 83.754C97.1045 84.402 96.9905 84.984 96.7625 85.5C96.5345 86.016 96.2065 86.426 95.7785 86.73C95.3505 87.03 94.8345 87.18 94.2305 87.18ZM91.3145 89.88V80.52H92.1065V85.398H92.2025V89.88H91.3145ZM94.1405 86.358C94.5925 86.358 94.9685 86.244 95.2685 86.016C95.5685 85.788 95.7925 85.478 95.9405 85.086C96.0925 84.69 96.1685 84.246 96.1685 83.754C96.1685 83.266 96.0945 82.826 95.9465 82.434C95.7985 82.042 95.5725 81.732 95.2685 81.504C94.9685 81.276 94.5865 81.162 94.1225 81.162C93.6705 81.162 93.2945 81.272 92.9945 81.492C92.6985 81.712 92.4765 82.018 92.3285 82.41C92.1805 82.798 92.1065 83.246 92.1065 83.754C92.1065 84.254 92.1805 84.702 92.3285 85.098C92.4765 85.49 92.7005 85.798 93.0005 86.022C93.3005 86.246 93.6805 86.358 94.1405 86.358ZM101.95 87C101.586 87.076 101.226 87.106 100.87 87.09C100.518 87.074 100.202 86.998 99.922 86.862C99.646 86.726 99.436 86.514 99.292 86.226C99.176 85.986 99.112 85.744 99.1 85.5C99.092 85.252 99.088 84.97 99.088 84.654V78.72H99.964V84.618C99.964 84.89 99.966 85.118 99.97 85.302C99.978 85.482 100.02 85.642 100.096 85.782C100.24 86.05 100.468 86.21 100.78 86.262C101.096 86.314 101.486 86.302 101.95 86.226V87ZM97.702 81.276V80.52H101.95V81.276H97.702Z" fill="black"/>
</svg>
