<svg width="10" height="17" viewBox="0 0 10 17" fill="none" xmlns="http://www.w3.org/2000/svg">
<path d="M4.99391 15.9208H5.32991C5.95987 15.9208 6.27485 15.9208 6.49565 15.7604C6.56697 15.7085 6.62968 15.6458 6.68149 15.5745C6.84191 15.3537 6.84191 15.0387 6.84191 14.4088V9.62078H7.89191C8.48179 9.62078 8.77673 9.62078 8.98859 9.47922C9.08031 9.41793 9.15906 9.33918 9.22035 9.24746C9.36191 9.03559 9.36191 8.74065 9.36191 8.15078C9.36191 7.56091 9.36191 7.26597 9.22035 7.0541C9.15906 6.96238 9.08031 6.88363 8.98859 6.82235C8.77673 6.68078 8.48179 6.68078 7.89191 6.68078H6.84191V5.00078C6.84191 4.60939 6.84191 4.41369 6.90586 4.25933C6.99111 4.0535 7.15464 3.88998 7.36046 3.80472C7.51483 3.74078 7.71052 3.74078 8.10191 3.74078C8.4933 3.74078 8.689 3.74078 8.84337 3.67684C9.04919 3.59159 9.21272 3.42806 9.29797 3.22223C9.36191 3.06787 9.36191 2.87217 9.36191 2.48078V2.10745C9.36191 1.67219 9.36191 1.45456 9.28321 1.28578C9.19975 1.1068 9.0559 0.962944 8.87691 0.879483C8.70814 0.800781 8.49051 0.800781 8.05525 0.800781C6.53184 0.800781 5.77013 0.800781 5.17942 1.07624C4.55297 1.36835 4.04948 1.87184 3.75737 2.49828C3.48191 3.089 3.48191 3.8507 3.48191 5.37411V6.68078H2.43191C1.84204 6.68078 1.5471 6.68078 1.33523 6.82235C1.24352 6.88363 1.16476 6.96238 1.10348 7.0541C0.961914 7.26597 0.961914 7.56091 0.961914 8.15078C0.961914 8.74065 0.961914 9.03559 1.10348 9.24746C1.16476 9.33918 1.24352 9.41793 1.33523 9.47922C1.5471 9.62078 1.84204 9.62078 2.43191 9.62078H3.48191V14.4088C3.48191 15.0387 3.48191 15.3537 3.64234 15.5745C3.69415 15.6458 3.75686 15.7085 3.82817 15.7604C4.04898 15.9208 4.36396 15.9208 4.99391 15.9208Z" stroke="#0C0C0C" stroke-width="1.05" stroke-linejoin="round"/>
</svg>
