<svg width="19" height="18" viewBox="0 0 19 18" fill="none" xmlns="http://www.w3.org/2000/svg">
<path d="M14.7909 3.9101C14.7909 4.15548 14.592 4.3544 14.3466 4.3544C14.1012 4.3544 13.9023 4.15548 13.9023 3.9101C13.9023 3.66471 14.1012 3.46579 14.3466 3.46579C14.592 3.46579 14.7909 3.66471 14.7909 3.9101Z" fill="#292556" stroke="#0C0C0C" stroke-width="0.888611"/>
<path d="M1.46191 7.19878C1.46191 4.53314 1.46191 3.20032 2.14075 2.26598C2.35999 1.96422 2.62535 1.69886 2.92711 1.47962C3.86145 0.800781 5.19427 0.800781 7.85991 0.800781H11.0589C13.7246 0.800781 15.0574 0.800781 15.9917 1.47962C16.2935 1.69886 16.5588 1.96422 16.7781 2.26598C17.4569 3.20032 17.4569 4.53314 17.4569 7.19878V10.3978C17.4569 13.0634 17.4569 14.3962 16.7781 15.3306C16.5588 15.6323 16.2935 15.8977 15.9917 16.1169C15.0574 16.7958 13.7246 16.7958 11.0589 16.7958H7.85991C5.19427 16.7958 3.86145 16.7958 2.92711 16.1169C2.62535 15.8977 2.35999 15.6323 2.14075 15.3306C1.46191 14.3962 1.46191 13.0634 1.46191 10.3978V7.19878Z" stroke="#0C0C0C" stroke-width="1.33292" stroke-linejoin="round"/>
<path d="M13.0139 8.79828C13.0139 10.7613 11.4225 12.3527 9.45941 12.3527C7.49635 12.3527 5.90497 10.7613 5.90497 8.79828C5.90497 6.83522 7.49635 5.24384 9.45941 5.24384C11.4225 5.24384 13.0139 6.83522 13.0139 8.79828Z" stroke="#0C0C0C" stroke-width="1.33292" stroke-linejoin="round"/>
</svg>
