<svg width="15" height="16" viewBox="0 0 15 16" fill="none" xmlns="http://www.w3.org/2000/svg">
<path d="M7.07342 6.74023V11.1736V9.28016C7.07342 7.8774 8.21058 6.74023 9.61335 6.74023V6.74023C10.455 6.74023 11.1373 7.42253 11.1373 8.26419V11.1736M4.4873 6.74023V11.1736" stroke="#0C0C0C" stroke-width="1.05" stroke-linecap="round" stroke-linejoin="round"/>
<path d="M5.22582 4.52405C5.22582 4.93212 4.89501 5.26293 4.48694 5.26293C4.07886 5.26293 3.74805 4.93212 3.74805 4.52405C3.74805 4.11597 4.07886 3.78516 4.48694 3.78516C4.89501 3.78516 5.22582 4.11597 5.22582 4.52405Z" fill="#0C0C0C" fill-opacity="0.9" stroke="#0C0C0C" stroke-width="1.05"/>
<path d="M1.16211 6.51922C1.16211 4.30271 1.16211 3.19446 1.72657 2.41754C1.90887 2.16663 2.12952 1.94598 2.38043 1.76368C3.15735 1.19922 4.2656 1.19922 6.48211 1.19922H9.1421C11.3586 1.19922 12.4669 1.19922 13.2438 1.76368C13.4947 1.94598 13.7154 2.16663 13.8976 2.41754C14.4621 3.19446 14.4621 4.30271 14.4621 6.51922V9.17921C14.4621 11.3957 14.4621 12.504 13.8976 13.2809C13.7154 13.5318 13.4947 13.7525 13.2438 13.9348C12.4669 14.4992 11.3586 14.4992 9.14211 14.4992H6.48211C4.2656 14.4992 3.15735 14.4992 2.38043 13.9348C2.12952 13.7525 1.90887 13.5318 1.72657 13.2809C1.16211 12.504 1.16211 11.3957 1.16211 9.17922V6.51922Z" stroke="#0C0C0C" stroke-width="1.05" stroke-linejoin="round"/>
</svg>
