<svg width="72" height="72" viewBox="0 0 72 72" fill="none" xmlns="http://www.w3.org/2000/svg">
<path d="M18.0003 57.4C19.757 57.3999 21.2713 56.7703 22.5216 55.5221C23.7724 54.2734 24.4021 52.7586 24.4 50.9995C24.3979 49.2412 23.7685 47.7278 22.5218 46.4812C21.2752 45.2346 19.761 44.6043 18.001 44.6C16.2394 44.5957 14.7249 45.2268 13.48 46.4824C12.2369 47.736 11.6064 49.2483 11.6 50.9985C11.5936 52.7511 12.2252 54.2659 13.4812 55.5218C14.7367 56.7774 16.2501 57.4081 18.0003 57.4ZM18.0003 57.4C18.0002 57.4 18.0001 57.4 18 57.4V57L18.0003 57.4ZM54.0003 57.4C55.757 57.3999 57.2713 56.7703 58.5216 55.5221C59.7724 54.2734 60.4021 52.7586 60.4 50.9995C60.3979 49.2412 59.7685 47.7278 58.5218 46.4812C57.2752 45.2346 55.761 44.6043 54.001 44.6C52.2394 44.5957 50.7249 45.2268 49.48 46.4824C48.2369 47.736 47.6064 49.2483 47.6 50.9985C47.5936 52.7511 48.2252 54.2659 49.4812 55.5218C50.7367 56.7774 52.2501 57.4081 54.0003 57.4ZM54.0003 57.4C54.0002 57.4 54.0001 57.4 54 57.4V57L54.0003 57.4ZM23.7228 40.9201L23.9907 41.0771L24.2092 40.8565L32.0842 32.9065L32.3618 32.6262L32.0854 32.3447L23.9104 24.0197L23.9104 24.0197L23.9078 24.0172C23.0426 23.1519 22.4119 22.2091 22.0079 21.1888C21.5995 20.1573 21.3981 19.1204 21.4 18.0757V18.075C21.4 15.8289 22.185 13.8224 23.7735 12.0412C25.3403 10.2845 27.4026 9.4 30 9.4H42C44.5974 9.4 46.6597 10.2845 48.2265 12.0412C49.815 13.8224 50.6 15.8289 50.6 18.075C50.6 19.1221 50.3975 20.1733 49.988 21.2305C49.5836 22.2749 48.9537 23.2287 48.0918 24.0925L48.0909 24.0935L39.9159 32.3435L39.6383 32.6236L39.9145 32.9051L47.7145 40.8551L47.9432 41.0882L48.2173 40.9108C49.0281 40.3862 49.9243 40.0035 50.9087 39.7636C51.9025 39.5215 52.9326 39.4 54 39.4C57.1931 39.4 59.9166 40.5323 62.1922 42.8078C64.4677 45.0834 65.6 47.8069 65.6 51C65.6 54.1931 64.4677 56.9166 62.1922 59.1922C59.9166 61.4677 57.1931 62.6 54 62.6C50.8069 62.6 48.0834 61.4677 45.8078 59.1922C43.5323 56.9166 42.4 54.1931 42.4 51C42.4 49.9369 42.5449 48.8989 42.8346 47.8849C43.1255 46.8667 43.5376 45.8971 44.0712 44.9754L44.2236 44.7121L44.0105 44.4949L36.2855 36.6199L36 36.3288L35.7145 36.6199L27.9895 44.4949L27.7764 44.7121L27.9288 44.9754C28.4624 45.8971 28.8745 46.8667 29.1654 47.8849C29.4551 48.8989 29.6 49.9369 29.6 51C29.6 54.1931 28.4677 56.9166 26.1922 59.1922C23.9166 61.4677 21.1931 62.6 18 62.6C14.8069 62.6 12.0834 61.4677 9.80784 59.1922C7.53226 56.9166 6.4 54.1931 6.4 51C6.4 47.8069 7.53226 45.0834 9.80784 42.8078C12.0834 40.5323 14.8069 39.4 18 39.4C19.0662 39.4 20.0803 39.5337 21.0436 39.7996C22.0118 40.0668 22.9044 40.4406 23.7228 40.9201ZM26.8573 19.2826L27.225 19.125L26.8573 19.2826C27.0293 19.6839 27.2846 20.05 27.6159 20.3816C27.6163 20.382 27.6167 20.3824 27.6172 20.3828L35.7146 28.6302L35.9987 28.9196L36.2841 28.6315L44.3828 20.4578C44.3829 20.4578 44.383 20.4577 44.3831 20.4576C44.7191 20.1215 44.9751 19.7396 45.1463 19.3129C45.3152 18.8917 45.4 18.4531 45.4 18C45.4 17.098 45.0862 16.3021 44.4699 15.6297C43.8356 14.9378 42.9989 14.6 42 14.6H30C29.0011 14.6 28.1644 14.9378 27.5301 15.6297C26.9138 16.3021 26.6 17.098 26.6 18C26.6 18.4514 26.6849 18.8803 26.8573 19.2826Z" fill="url(#paint0_linear_2655_4642)" stroke="url(#paint1_linear_2655_4642)" stroke-width="0.8"/>
<defs>
<linearGradient id="paint0_linear_2655_4642" x1="36" y1="9" x2="36" y2="63" gradientUnits="userSpaceOnUse">
<stop stop-color="#9678F9"/>
<stop offset="1" stop-color="#5F82C7"/>
</linearGradient>
<linearGradient id="paint1_linear_2655_4642" x1="36" y1="9" x2="36" y2="63" gradientUnits="userSpaceOnUse">
<stop stop-color="#9678F9"/>
<stop offset="1" stop-color="#5F82C7"/>
</linearGradient>
</defs>
</svg>
