<svg width="72" height="72" viewBox="0 0 72 72" fill="none" xmlns="http://www.w3.org/2000/svg">
<path d="M16.725 6.22297C17.1069 6.40661 17.4293 6.6944 17.6548 7.05318C17.8804 7.41197 18 7.82716 18 8.25097C18 10.741 18.936 12.175 20.109 13.921L20.196 14.047C21.192 15.529 22.5 17.47 22.5 20.251C22.5 23.089 21.069 25.591 18.888 27.076C19.461 27.556 19.968 28.147 20.406 28.855C21.834 31.165 22.5 34.696 22.5 39.766C22.5 44.902 21.81 51.07 20.685 55.996C20.127 58.444 19.434 60.703 18.609 62.398C18.2195 63.2413 17.7036 64.0203 17.079 64.708C16.461 65.341 15.51 66.016 14.25 66.016C12.99 66.016 12.039 65.341 11.424 64.708C10.7976 64.0217 10.2815 63.2424 9.894 62.398C9.066 60.7 8.373 58.444 7.815 55.993C6.64484 50.6612 6.03652 45.2215 6 39.763C6 34.693 6.666 31.165 8.094 28.855C8.50139 28.1844 9.01393 27.5838 9.612 27.076C8.49832 26.3199 7.58681 25.3025 6.95716 24.1127C6.3275 22.9229 5.99888 21.5971 6 20.251C6 19.147 6 17.248 7.149 14.797C8.274 12.397 10.413 9.63997 14.343 6.49297C14.6742 6.22802 15.0736 6.06209 15.4951 6.01432C15.9165 5.96655 16.3429 6.03888 16.725 6.22297ZM10.5 20.248C10.5 21.2425 10.8951 22.1994 11.5984 22.9026C12.3016 23.6059 13.2554 24.001 14.25 24.001C15.2446 24.001 16.1984 23.6059 16.9017 22.9026C17.6049 22.1994 18 21.2455 18 20.251C18 18.934 17.445 18.022 16.374 16.429L16.338 16.375C15.651 15.355 14.838 14.146 14.262 12.595C12.633 14.251 11.733 15.625 11.226 16.705C10.5 18.253 10.5 19.357 10.5 20.248ZM11.922 31.219C11.178 32.425 10.5 34.897 10.5 39.766C10.5 44.569 11.154 50.401 12.201 54.994C12.729 57.304 13.329 59.179 13.938 60.427C14.049 60.658 14.154 60.85 14.25 61.012C14.346 60.85 14.451 60.658 14.562 60.427C15.171 59.179 15.771 57.301 16.299 54.994C17.349 50.404 18 44.572 18 39.766C18 34.897 17.322 32.425 16.578 31.219C16.3536 30.813 16.0145 30.4822 15.603 30.268C15.177 30.0824 14.7143 29.9962 14.25 30.016C13.65 30.016 13.221 30.109 12.897 30.268C12.4855 30.4822 12.1464 30.813 11.922 31.219ZM30 44.755C28.4106 44.4884 26.8646 44.008 25.404 43.327C25.4918 41.6255 25.5168 39.9213 25.479 38.218C26.832 39.127 28.359 39.796 30 40.168V31.501C30 30.3075 30.4741 29.1629 31.318 28.319C32.1619 27.4751 33.3065 27.001 34.5 27.001H46.5C46.4999 24.483 45.7956 22.0153 44.4666 19.8767C43.1377 17.738 41.2372 16.0136 38.9798 14.8983C36.7223 13.783 34.198 13.3213 31.6919 13.5652C29.1858 13.8092 26.7979 14.7492 24.798 16.279C24.198 14.62 23.343 13.351 22.749 12.469L22.629 12.289C25.3244 10.3889 28.4899 9.26583 31.7801 9.04233C35.0703 8.81883 38.3586 9.50351 41.2862 11.0216C44.2138 12.5397 46.668 14.8329 48.381 17.6509C50.094 20.4688 51 23.7032 51 27.001H61.5C62.6935 27.001 63.8381 27.4751 64.682 28.319C65.5259 29.1629 66 30.3075 66 31.501V58.501C66 59.6944 65.5259 60.839 64.682 61.6829C63.8381 62.5269 62.6935 63.001 61.5 63.001H34.5C33.3065 63.001 32.1619 62.5269 31.318 61.6829C30.4741 60.839 30 59.6944 30 58.501V44.752V44.755ZM34.5 44.944V58.504H61.5V31.504H50.43C49.4953 35.119 47.4603 38.3543 44.6064 40.7621C41.7525 43.1699 38.2208 44.6312 34.5 44.944ZM45.732 31.504H34.5V40.423C37.0206 40.1404 39.4107 39.154 41.3971 37.5767C43.3834 35.9995 44.8856 33.895 45.732 31.504Z" fill="url(#paint0_linear_2655_4614)"/>
<defs>
<linearGradient id="paint0_linear_2655_4614" x1="36" y1="6" x2="36" y2="66.016" gradientUnits="userSpaceOnUse">
<stop stop-color="#9678F9"/>
<stop offset="1" stop-color="#5F82C7"/>
</linearGradient>
</defs>
</svg>
