<svg width="72" height="72" viewBox="0 0 72 72" fill="none" xmlns="http://www.w3.org/2000/svg">
<path d="M9.41856 35.5782L8.91146 36.0007L9.41856 36.4233L19.8079 45.0802L19.8114 45.083C20.0998 45.3194 20.3386 45.6105 20.5139 45.9395C20.6893 46.2686 20.7977 46.6292 20.833 47.0004C20.8684 47.3716 20.8298 47.7461 20.7197 48.1024C20.6096 48.4586 20.43 48.7895 20.1914 49.0761C19.9527 49.3626 19.6597 49.599 19.3292 49.7717C18.9987 49.9444 18.6373 50.05 18.2659 50.0823C17.8944 50.1147 17.5202 50.0732 17.1648 49.9602C16.8095 49.8472 16.48 49.665 16.1954 49.4241L16.1921 49.4213L2.69212 38.1713L2.69204 38.1713C2.37378 37.9061 2.11772 37.5743 1.942 37.1992C1.76627 36.8241 1.67518 36.4149 1.67518 36.0007C1.67518 35.5865 1.76627 35.1774 1.942 34.8023C2.11772 34.4272 2.37378 34.0953 2.69204 33.8302L2.69212 33.8301L16.1886 22.583C16.1892 22.5825 16.1897 22.5821 16.1903 22.5816C16.7665 22.1101 17.5056 21.8852 18.2469 21.9557C18.9889 22.0263 19.6729 22.3873 20.1499 22.9599C20.6269 23.5326 20.8583 24.2706 20.7936 25.0131C20.729 25.7549 20.3742 26.4411 19.8063 26.9227C19.8058 26.9231 19.8052 26.9236 19.8046 26.9241L9.41856 35.5782ZM69.3079 33.8301L69.308 33.8302C69.6262 34.0953 69.8823 34.4272 70.058 34.8023C70.2338 35.1774 70.3248 35.5865 70.3248 36.0007C70.3248 36.4149 70.2338 36.8241 70.058 37.1992C69.8823 37.5743 69.6262 37.9061 69.308 38.1713L69.3079 38.1713L55.8079 49.4213L55.8046 49.4241C55.52 49.665 55.1906 49.8472 54.8352 49.9602C54.4799 50.0732 54.1056 50.1147 53.7342 50.0823C53.3627 50.05 53.0013 49.9444 52.6708 49.7717C52.3403 49.599 52.0473 49.3626 51.8087 49.076C51.57 48.7895 51.3905 48.4586 51.2803 48.1024C51.1702 47.7461 51.1317 47.3716 51.167 47.0004C51.2023 46.6292 51.3108 46.2686 51.4861 45.9395C51.6615 45.6105 51.9002 45.3194 52.1887 45.083L52.1921 45.0801L62.5815 36.4233L63.0886 36.0007L62.5815 35.5782L52.1921 26.9213L52.1886 26.9185C51.9002 26.6821 51.6615 26.391 51.4861 26.0619C51.3108 25.7328 51.2023 25.3723 51.167 25.0011C51.1317 24.6299 51.1702 24.2553 51.2803 23.8991C51.3905 23.5428 51.57 23.2119 51.8087 22.9254C52.0473 22.6389 52.3404 22.4025 52.6708 22.2298C53.0013 22.057 53.3627 21.9515 53.7342 21.9191C54.1056 21.8868 54.4799 21.9283 54.8352 22.0412C55.1906 22.1542 55.52 22.3364 55.8046 22.5774L55.8079 22.5801L69.3079 33.8301ZM45.9652 8.59511L45.9653 8.59517C46.3141 8.72187 46.6345 8.91604 46.9082 9.16658C47.1819 9.41713 47.4036 9.71914 47.5605 10.0554C47.7175 10.3916 47.8067 10.7555 47.823 11.1262C47.8393 11.4969 47.7825 11.8672 47.6556 12.2159L48.1725 12.4039L47.6556 12.2159L29.6556 61.7159L29.6556 61.7159C29.4574 62.261 29.0963 62.7319 28.6212 63.0647C28.1461 63.3974 27.5801 63.5758 27.0001 63.5757H26.9993C26.671 63.5762 26.3453 63.5182 26.0374 63.4045L26.0348 63.4035C25.331 63.1476 24.7576 62.6227 24.4407 61.9442C24.1237 61.2657 24.0892 60.4892 24.3445 59.7852L42.3444 10.2856L42.3445 10.2854C42.4712 9.93664 42.6653 9.61625 42.9159 9.34254C43.1664 9.06884 43.4684 8.84717 43.8047 8.6902C44.1409 8.53324 44.5048 8.44405 44.8755 8.42773C45.2462 8.41142 45.6164 8.46829 45.9652 8.59511Z" fill="url(#paint0_linear_2655_4601)" stroke="url(#paint1_linear_2655_4601)" stroke-width="1.1"/>
<defs>
<linearGradient id="paint0_linear_2655_4601" x1="36" y1="7.875" x2="36" y2="64.1257" gradientUnits="userSpaceOnUse">
<stop stop-color="#9678F9"/>
<stop offset="1" stop-color="#5F82C7"/>
</linearGradient>
<linearGradient id="paint1_linear_2655_4601" x1="36" y1="7.875" x2="36" y2="64.1257" gradientUnits="userSpaceOnUse">
<stop stop-color="#9678F9"/>
<stop offset="1" stop-color="#5F82C7"/>
</linearGradient>
</defs>
</svg>
